# xmcd
# 
# Track frame offsets:
#     150
#     12778
#     23245
#     33465
#     43796
#     54092
#     64286
#     75550
#     84863
#     95059
#     108212
#     120458
#     142784
#     151648
#     166082
#     178905
#     192961
#     203118
#     214018
#     227972
#     239489
#     251302
#     260470
#     269628
#     283208
#     295406
#     307403
#     320728
# 
# Disc length: 4458
# 
# Revision: 1
# Processed by: cddbd v1.5.2PL0 Copyright (c) Steve Scherf et al.
# Submitted via: fre:ac v1.0.17
# 
DISCID=8f11681c
DTITLE=Patsy Cline - The Patsy Cline Collection Cd3
DYEAR=1991
DGENRE=Country
TTITLE0=Crazy
TTITLE1=Who Can I Count On
TTITLE2=Seven Lonely Days
TTITLE3=I Love You So Much It Hurts
TTITLE4=Foolin' 'round
TTITLE5=Have You Ever Been Lonely (Have You Ever Been Blue)
TTITLE6=South Of The Border (Down Mexico Way)
TTITLE7=Walkin' After Midnight
TTITLE8=Strange
TTITLE9=You're Stronger Than Me
TTITLE10=Come On In (Make Yourself At Home)
TTITLE11=A Poor Man's Roses (Or A Rich Man's Gold)
TTITLE12=Bill Bailey Won't You Please Come Home
TTITLE13=She's Got You
TTITLE14=You Made Me Love You (I Did'nt Want To Do It)
TTITLE15=You Belong To Me
TTITLE16=Heartaches
TTITLE17=Your Cheatin' Heart
TTITLE18=That's My Desire
TTITLE19=Half As Much
TTITLE20=Lonely Street
TTITLE21=Anytime
TTITLE22=You Were Only Fooling (While I Was Falling In Love)
TTITLE23=I Can't Help It (If I'm Still In Love With You)
TTITLE24=You're Stronger Than Me
TTITLE25=When I Get Thru With You (You'll Love Me Too)
TTITLE26=Imagine That
TTITLE27=So Wrong
EXTD=
EXTT0=YEAR: 1961
EXTT1=YEAR: 1961
EXTT2=YEAR: 1961
EXTT3=YEAR: 1961
EXTT4=YEAR: 1961
EXTT5=YEAR: 1961
EXTT6=YEAR: 1961
EXTT7=YEAR: 1961
EXTT8=YEAR: 1961
EXTT9=YEAR: 1961
EXTT10=YEAR: 1961
EXTT11=YEAR: 1961
EXTT12=YEAR: 1961
EXTT13=YEAR: 1961
EXTT14=YEAR: 1962
EXTT15=YEAR: 1962
EXTT16=YEAR: 1962
EXTT17=YEAR: 1962
EXTT18=YEAR: 1962
EXTT19=YEAR: 1962
EXTT20=YEAR: 1962
EXTT21=YEAR: 1962
EXTT22=YEAR: 1962
EXTT23=YEAR: 1962
EXTT24=YEAR: 1962
EXTT25=YEAR: 1962
EXTT26=YEAR: 1962
EXTT27=YEAR: 1962
PLAYORDER=
